<mxfile host="app.diagrams.net" agent="Mozilla/5.0 (Windows NT 10.0; Win64; x64) AppleWebKit/537.36 (KHTML, like Gecko) Chrome/134.0.0.0 Safari/537.36" version="26.2.8">
  <diagram name="Page-1" id="5f0bae14-7c28-e335-631c-24af17079c00">
    <mxGraphModel dx="2177" dy="1161" grid="1" gridSize="10" guides="1" tooltips="1" connect="1" arrows="1" fold="1" page="1" pageScale="1" pageWidth="1100" pageHeight="850" background="none" math="0" shadow="0">
      <root>
        <mxCell id="0" />
        <mxCell id="1" parent="0" />
        <mxCell id="FY6FVotYPZoSdEqQePK5-1" value="«User-Interface»&lt;br&gt;&lt;b&gt;Component&lt;/b&gt;" style="html=1;dropTarget=0;whiteSpace=wrap;labelBackgroundColor=none;fillColor=#182E3E;strokeColor=#FFFFFF;fontColor=#FFFFFF;" vertex="1" parent="1">
          <mxGeometry x="260" y="140" width="180" height="90" as="geometry" />
        </mxCell>
        <mxCell id="FY6FVotYPZoSdEqQePK5-2" value="" style="shape=module;jettyWidth=8;jettyHeight=4;labelBackgroundColor=none;fillColor=#182E3E;strokeColor=#FFFFFF;fontColor=#FFFFFF;" vertex="1" parent="FY6FVotYPZoSdEqQePK5-1">
          <mxGeometry x="1" width="20" height="20" relative="1" as="geometry">
            <mxPoint x="-27" y="7" as="offset" />
          </mxGeometry>
        </mxCell>
        <mxCell id="FY6FVotYPZoSdEqQePK5-5" value="«Event controller service»&lt;br&gt;&lt;b&gt;Component&lt;/b&gt;" style="html=1;dropTarget=0;whiteSpace=wrap;labelBackgroundColor=none;fillColor=#182E3E;strokeColor=#FFFFFF;fontColor=#FFFFFF;" vertex="1" parent="1">
          <mxGeometry x="580" y="200" width="180" height="90" as="geometry" />
        </mxCell>
        <mxCell id="FY6FVotYPZoSdEqQePK5-6" value="" style="shape=module;jettyWidth=8;jettyHeight=4;labelBackgroundColor=none;fillColor=#182E3E;strokeColor=#FFFFFF;fontColor=#FFFFFF;" vertex="1" parent="FY6FVotYPZoSdEqQePK5-5">
          <mxGeometry x="1" width="20" height="20" relative="1" as="geometry">
            <mxPoint x="-27" y="7" as="offset" />
          </mxGeometry>
        </mxCell>
        <mxCell id="FY6FVotYPZoSdEqQePK5-8" value="Customer" style="html=1;whiteSpace=wrap;labelBackgroundColor=none;fillColor=#182E3E;strokeColor=#FFFFFF;fontColor=#FFFFFF;" vertex="1" parent="1">
          <mxGeometry x="50" y="160" width="110" height="50" as="geometry" />
        </mxCell>
        <mxCell id="FY6FVotYPZoSdEqQePK5-20" value="«Notification&amp;nbsp;3d -pt»&lt;div&gt;&lt;br&gt;&lt;/div&gt;" style="html=1;whiteSpace=wrap;labelBackgroundColor=none;fillColor=#182E3E;strokeColor=#FFFFFF;fontColor=#FFFFFF;" vertex="1" parent="1">
          <mxGeometry x="1110" y="60" width="110" height="50" as="geometry" />
        </mxCell>
        <mxCell id="FY6FVotYPZoSdEqQePK5-21" value="«&lt;strong data-sourcepos=&quot;5:1-5:9&quot;&gt;Venue&lt;/strong&gt;&amp;nbsp;service»&lt;br&gt;&lt;b&gt;Component&lt;/b&gt;" style="html=1;dropTarget=0;whiteSpace=wrap;labelBackgroundColor=none;fillColor=#182E3E;strokeColor=#FFFFFF;fontColor=#FFFFFF;" vertex="1" parent="1">
          <mxGeometry x="550" y="500" width="180" height="90" as="geometry" />
        </mxCell>
        <mxCell id="FY6FVotYPZoSdEqQePK5-22" value="" style="shape=module;jettyWidth=8;jettyHeight=4;labelBackgroundColor=none;fillColor=#182E3E;strokeColor=#FFFFFF;fontColor=#FFFFFF;" vertex="1" parent="FY6FVotYPZoSdEqQePK5-21">
          <mxGeometry x="1" width="20" height="20" relative="1" as="geometry">
            <mxPoint x="-27" y="7" as="offset" />
          </mxGeometry>
        </mxCell>
        <mxCell id="FY6FVotYPZoSdEqQePK5-31" value="«&lt;b&gt;Cart&amp;nbsp;&lt;/b&gt;service»&lt;br&gt;&lt;b&gt;Component&lt;/b&gt;" style="html=1;dropTarget=0;whiteSpace=wrap;labelBackgroundColor=none;fillColor=#182E3E;strokeColor=#FFFFFF;fontColor=#FFFFFF;" vertex="1" parent="1">
          <mxGeometry x="545" y="335" width="180" height="90" as="geometry" />
        </mxCell>
        <mxCell id="FY6FVotYPZoSdEqQePK5-32" value="" style="shape=module;jettyWidth=8;jettyHeight=4;labelBackgroundColor=none;fillColor=#182E3E;strokeColor=#FFFFFF;fontColor=#FFFFFF;" vertex="1" parent="FY6FVotYPZoSdEqQePK5-31">
          <mxGeometry x="1" width="20" height="20" relative="1" as="geometry">
            <mxPoint x="-27" y="7" as="offset" />
          </mxGeometry>
        </mxCell>
        <mxCell id="FY6FVotYPZoSdEqQePK5-17" value="«Payment 3d -pt»&lt;div&gt;&lt;br/&gt;&lt;/div&gt;" style="html=1;whiteSpace=wrap;labelBackgroundColor=none;fillColor=#182E3E;strokeColor=#FFFFFF;fontColor=#FFFFFF;" vertex="1" parent="1">
          <mxGeometry x="1170" y="550" width="110" height="50" as="geometry" />
        </mxCell>
        <mxCell id="FY6FVotYPZoSdEqQePK5-10" value="«Payment service»&lt;br&gt;&lt;b&gt;Component&lt;/b&gt;" style="html=1;dropTarget=0;whiteSpace=wrap;labelBackgroundColor=none;fillColor=#182E3E;strokeColor=#FFFFFF;fontColor=#FFFFFF;" vertex="1" parent="1">
          <mxGeometry x="930" y="530" width="180" height="90" as="geometry" />
        </mxCell>
        <mxCell id="FY6FVotYPZoSdEqQePK5-11" value="" style="shape=module;jettyWidth=8;jettyHeight=4;labelBackgroundColor=none;fillColor=#182E3E;strokeColor=#FFFFFF;fontColor=#FFFFFF;" vertex="1" parent="FY6FVotYPZoSdEqQePK5-10">
          <mxGeometry x="1" width="20" height="20" relative="1" as="geometry">
            <mxPoint x="-27" y="7" as="offset" />
          </mxGeometry>
        </mxCell>
        <mxCell id="FY6FVotYPZoSdEqQePK5-36" value="" style="rounded=0;orthogonalLoop=1;jettySize=auto;html=1;endArrow=halfCircle;endFill=0;endSize=6;strokeWidth=1;sketch=0;labelBackgroundColor=none;strokeColor=#23445D;fontColor=default;" edge="1" target="FY6FVotYPZoSdEqQePK5-38" parent="1" source="FY6FVotYPZoSdEqQePK5-1">
          <mxGeometry relative="1" as="geometry">
            <mxPoint x="230" y="195" as="sourcePoint" />
          </mxGeometry>
        </mxCell>
        <mxCell id="FY6FVotYPZoSdEqQePK5-37" value="" style="rounded=0;orthogonalLoop=1;jettySize=auto;html=1;endArrow=oval;endFill=0;sketch=0;sourcePerimeterSpacing=0;targetPerimeterSpacing=0;endSize=10;labelBackgroundColor=none;strokeColor=#23445D;fontColor=default;" edge="1" target="FY6FVotYPZoSdEqQePK5-38" parent="1" source="FY6FVotYPZoSdEqQePK5-8">
          <mxGeometry relative="1" as="geometry">
            <mxPoint x="190" y="195" as="sourcePoint" />
          </mxGeometry>
        </mxCell>
        <mxCell id="FY6FVotYPZoSdEqQePK5-38" value="" style="ellipse;whiteSpace=wrap;html=1;align=center;aspect=fixed;fillColor=none;strokeColor=none;resizable=0;perimeter=centerPerimeter;rotatable=0;allowArrows=0;points=[];outlineConnect=1;labelBackgroundColor=none;fontColor=#FFFFFF;" vertex="1" parent="1">
          <mxGeometry x="205" y="180" width="10" height="10" as="geometry" />
        </mxCell>
        <mxCell id="FY6FVotYPZoSdEqQePK5-39" value="Manager" style="html=1;whiteSpace=wrap;labelBackgroundColor=none;fillColor=#182E3E;strokeColor=#FFFFFF;fontColor=#FFFFFF;" vertex="1" parent="1">
          <mxGeometry x="50" y="230" width="110" height="50" as="geometry" />
        </mxCell>
        <mxCell id="FY6FVotYPZoSdEqQePK5-43" value="" style="rounded=0;orthogonalLoop=1;jettySize=auto;html=1;endArrow=halfCircle;endFill=0;endSize=6;strokeWidth=1;sketch=0;labelBackgroundColor=none;strokeColor=#23445D;fontColor=default;" edge="1" target="FY6FVotYPZoSdEqQePK5-45" parent="1" source="FY6FVotYPZoSdEqQePK5-1">
          <mxGeometry relative="1" as="geometry">
            <mxPoint x="240" y="255" as="sourcePoint" />
          </mxGeometry>
        </mxCell>
        <mxCell id="FY6FVotYPZoSdEqQePK5-44" value="" style="rounded=0;orthogonalLoop=1;jettySize=auto;html=1;endArrow=oval;endFill=0;sketch=0;sourcePerimeterSpacing=0;targetPerimeterSpacing=0;endSize=10;labelBackgroundColor=none;strokeColor=#23445D;fontColor=default;" edge="1" target="FY6FVotYPZoSdEqQePK5-45" parent="1" source="FY6FVotYPZoSdEqQePK5-39">
          <mxGeometry relative="1" as="geometry">
            <mxPoint x="200" y="255" as="sourcePoint" />
          </mxGeometry>
        </mxCell>
        <mxCell id="FY6FVotYPZoSdEqQePK5-45" value="" style="ellipse;whiteSpace=wrap;html=1;align=center;aspect=fixed;fillColor=none;strokeColor=none;resizable=0;perimeter=centerPerimeter;rotatable=0;allowArrows=0;points=[];outlineConnect=1;labelBackgroundColor=none;fontColor=#FFFFFF;" vertex="1" parent="1">
          <mxGeometry x="195" y="230" width="10" height="10" as="geometry" />
        </mxCell>
        <mxCell id="FY6FVotYPZoSdEqQePK5-3" value="«Auth-Service»&lt;br&gt;&lt;b&gt;Component&lt;/b&gt;" style="html=1;dropTarget=0;whiteSpace=wrap;labelBackgroundColor=none;fillColor=#182E3E;strokeColor=#FFFFFF;fontColor=#FFFFFF;" vertex="1" parent="1">
          <mxGeometry x="190" y="570" width="180" height="90" as="geometry" />
        </mxCell>
        <mxCell id="FY6FVotYPZoSdEqQePK5-4" value="" style="shape=module;jettyWidth=8;jettyHeight=4;labelBackgroundColor=none;fillColor=#182E3E;strokeColor=#FFFFFF;fontColor=#FFFFFF;" vertex="1" parent="FY6FVotYPZoSdEqQePK5-3">
          <mxGeometry x="1" width="20" height="20" relative="1" as="geometry">
            <mxPoint x="-27" y="7" as="offset" />
          </mxGeometry>
        </mxCell>
        <mxCell id="FY6FVotYPZoSdEqQePK5-49" value="" style="endArrow=classic;startArrow=classic;html=1;rounded=0;labelBackgroundColor=none;strokeColor=#23445D;fontColor=default;" edge="1" parent="1" source="FY6FVotYPZoSdEqQePK5-3" target="FY6FVotYPZoSdEqQePK5-5">
          <mxGeometry width="50" height="50" relative="1" as="geometry">
            <mxPoint x="630" y="460" as="sourcePoint" />
            <mxPoint x="630" y="320" as="targetPoint" />
            <Array as="points">
              <mxPoint x="470" y="390" />
            </Array>
          </mxGeometry>
        </mxCell>
        <mxCell id="FY6FVotYPZoSdEqQePK5-50" value="Use" style="endArrow=open;endSize=12;dashed=1;html=1;rounded=0;labelBackgroundColor=none;strokeColor=#23445D;fontColor=default;" edge="1" parent="1" source="FY6FVotYPZoSdEqQePK5-1" target="FY6FVotYPZoSdEqQePK5-3">
          <mxGeometry width="160" relative="1" as="geometry">
            <mxPoint x="290" y="390" as="sourcePoint" />
            <mxPoint x="450" y="390" as="targetPoint" />
          </mxGeometry>
        </mxCell>
        <mxCell id="FY6FVotYPZoSdEqQePK5-51" value="Use" style="endArrow=open;endSize=12;dashed=1;html=1;rounded=0;labelBackgroundColor=none;strokeColor=#23445D;fontColor=default;" edge="1" parent="1" source="FY6FVotYPZoSdEqQePK5-1" target="FY6FVotYPZoSdEqQePK5-5">
          <mxGeometry width="160" relative="1" as="geometry">
            <mxPoint x="450" y="160" as="sourcePoint" />
            <mxPoint x="555" y="120" as="targetPoint" />
          </mxGeometry>
        </mxCell>
        <mxCell id="FY6FVotYPZoSdEqQePK5-52" value="«Ticket service»&lt;br&gt;&lt;b&gt;Component&lt;/b&gt;" style="html=1;dropTarget=0;whiteSpace=wrap;labelBackgroundColor=none;fillColor=#182E3E;strokeColor=#FFFFFF;fontColor=#FFFFFF;" vertex="1" parent="1">
          <mxGeometry x="1040" y="200" width="180" height="90" as="geometry" />
        </mxCell>
        <mxCell id="FY6FVotYPZoSdEqQePK5-53" value="" style="shape=module;jettyWidth=8;jettyHeight=4;labelBackgroundColor=none;fillColor=#182E3E;strokeColor=#FFFFFF;fontColor=#FFFFFF;" vertex="1" parent="FY6FVotYPZoSdEqQePK5-52">
          <mxGeometry x="1" width="20" height="20" relative="1" as="geometry">
            <mxPoint x="-27" y="7" as="offset" />
          </mxGeometry>
        </mxCell>
        <mxCell id="FY6FVotYPZoSdEqQePK5-54" value="" style="endArrow=classic;startArrow=classic;html=1;rounded=0;labelBackgroundColor=none;strokeColor=#23445D;fontColor=default;" edge="1" parent="1" source="FY6FVotYPZoSdEqQePK5-5" target="FY6FVotYPZoSdEqQePK5-52">
          <mxGeometry width="50" height="50" relative="1" as="geometry">
            <mxPoint x="870" y="350" as="sourcePoint" />
            <mxPoint x="870" y="430" as="targetPoint" />
          </mxGeometry>
        </mxCell>
        <mxCell id="FY6FVotYPZoSdEqQePK5-55" value="Use" style="endArrow=open;endSize=12;dashed=1;html=1;rounded=0;labelBackgroundColor=none;strokeColor=#23445D;fontColor=default;" edge="1" parent="1" source="FY6FVotYPZoSdEqQePK5-1" target="FY6FVotYPZoSdEqQePK5-31">
          <mxGeometry width="160" relative="1" as="geometry">
            <mxPoint x="420" y="390" as="sourcePoint" />
            <mxPoint x="525" y="412" as="targetPoint" />
          </mxGeometry>
        </mxCell>
        <mxCell id="FY6FVotYPZoSdEqQePK5-57" value="Use" style="endArrow=open;endSize=12;dashed=1;html=1;rounded=0;labelBackgroundColor=none;strokeColor=#23445D;fontColor=default;" edge="1" parent="1" source="FY6FVotYPZoSdEqQePK5-31" target="FY6FVotYPZoSdEqQePK5-52">
          <mxGeometry width="160" relative="1" as="geometry">
            <mxPoint x="1030" y="450" as="sourcePoint" />
            <mxPoint x="1212" y="600" as="targetPoint" />
          </mxGeometry>
        </mxCell>
        <mxCell id="FY6FVotYPZoSdEqQePK5-58" value="«Notification service»&lt;br&gt;&lt;b&gt;Component&lt;/b&gt;" style="html=1;dropTarget=0;whiteSpace=wrap;labelBackgroundColor=none;fillColor=#182E3E;strokeColor=#FFFFFF;fontColor=#FFFFFF;" vertex="1" parent="1">
          <mxGeometry x="830" y="40" width="180" height="90" as="geometry" />
        </mxCell>
        <mxCell id="FY6FVotYPZoSdEqQePK5-59" value="" style="shape=module;jettyWidth=8;jettyHeight=4;labelBackgroundColor=none;fillColor=#182E3E;strokeColor=#FFFFFF;fontColor=#FFFFFF;" vertex="1" parent="FY6FVotYPZoSdEqQePK5-58">
          <mxGeometry x="1" width="20" height="20" relative="1" as="geometry">
            <mxPoint x="-27" y="7" as="offset" />
          </mxGeometry>
        </mxCell>
        <mxCell id="FY6FVotYPZoSdEqQePK5-61" value="" style="endArrow=block;dashed=1;endFill=0;endSize=12;html=1;rounded=0;labelBackgroundColor=none;strokeColor=#23445D;fontColor=default;" edge="1" parent="1" source="FY6FVotYPZoSdEqQePK5-5" target="FY6FVotYPZoSdEqQePK5-58">
          <mxGeometry width="160" relative="1" as="geometry">
            <mxPoint x="900" y="450" as="sourcePoint" />
            <mxPoint x="910" y="180" as="targetPoint" />
            <Array as="points">
              <mxPoint x="790" y="170" />
            </Array>
          </mxGeometry>
        </mxCell>
        <mxCell id="FY6FVotYPZoSdEqQePK5-62" value="Use" style="endArrow=open;endSize=12;dashed=1;html=1;rounded=0;labelBackgroundColor=none;strokeColor=#23445D;fontColor=default;" edge="1" parent="1" source="FY6FVotYPZoSdEqQePK5-58" target="FY6FVotYPZoSdEqQePK5-20">
          <mxGeometry width="160" relative="1" as="geometry">
            <mxPoint x="1120" y="200" as="sourcePoint" />
            <mxPoint x="1255" y="110" as="targetPoint" />
          </mxGeometry>
        </mxCell>
        <mxCell id="FY6FVotYPZoSdEqQePK5-63" value="Use" style="endArrow=open;endSize=12;dashed=1;html=1;rounded=0;exitX=1;exitY=0.5;exitDx=0;exitDy=0;labelBackgroundColor=none;strokeColor=#23445D;fontColor=default;" edge="1" parent="1" source="FY6FVotYPZoSdEqQePK5-21" target="FY6FVotYPZoSdEqQePK5-52">
          <mxGeometry width="160" relative="1" as="geometry">
            <mxPoint x="749.9987096774195" y="509.9999999999998" as="sourcePoint" />
            <mxPoint x="945.16" y="400" as="targetPoint" />
          </mxGeometry>
        </mxCell>
        <mxCell id="FY6FVotYPZoSdEqQePK5-64" value="Use" style="endArrow=open;endSize=12;dashed=1;html=1;rounded=0;exitX=0.25;exitY=1;exitDx=0;exitDy=0;entryX=0;entryY=0.5;entryDx=0;entryDy=0;labelBackgroundColor=none;strokeColor=#23445D;fontColor=default;" edge="1" parent="1" source="FY6FVotYPZoSdEqQePK5-1" target="FY6FVotYPZoSdEqQePK5-21">
          <mxGeometry width="160" relative="1" as="geometry">
            <mxPoint x="290" y="530" as="sourcePoint" />
            <mxPoint x="443" y="275" as="targetPoint" />
          </mxGeometry>
        </mxCell>
        <mxCell id="FY6FVotYPZoSdEqQePK5-65" value="Use" style="endArrow=open;endSize=12;dashed=1;html=1;rounded=0;labelBackgroundColor=none;strokeColor=#23445D;fontColor=default;" edge="1" parent="1" source="FY6FVotYPZoSdEqQePK5-31" target="FY6FVotYPZoSdEqQePK5-10">
          <mxGeometry x="0.3965" y="-10" width="160" relative="1" as="geometry">
            <mxPoint x="1095" y="590" as="sourcePoint" />
            <mxPoint x="1190" y="543" as="targetPoint" />
            <Array as="points">
              <mxPoint x="880" y="470" />
            </Array>
            <mxPoint as="offset" />
          </mxGeometry>
        </mxCell>
        <mxCell id="FY6FVotYPZoSdEqQePK5-66" value="Use" style="endArrow=open;endSize=12;dashed=1;html=1;rounded=0;exitX=1;exitY=0.5;exitDx=0;exitDy=0;labelBackgroundColor=none;strokeColor=#23445D;fontColor=default;" edge="1" parent="1" source="FY6FVotYPZoSdEqQePK5-10" target="FY6FVotYPZoSdEqQePK5-17">
          <mxGeometry width="160" relative="1" as="geometry">
            <mxPoint x="1020" y="95" as="sourcePoint" />
            <mxPoint x="1090" y="95" as="targetPoint" />
          </mxGeometry>
        </mxCell>
        <mxCell id="FY6FVotYPZoSdEqQePK5-68" value="" style="endArrow=classic;startArrow=classic;html=1;rounded=0;labelBackgroundColor=none;strokeColor=#23445D;fontColor=default;" edge="1" parent="1" source="FY6FVotYPZoSdEqQePK5-3">
          <mxGeometry width="50" height="50" relative="1" as="geometry">
            <mxPoint x="402" y="610" as="sourcePoint" />
            <mxPoint x="580" y="410" as="targetPoint" />
          </mxGeometry>
        </mxCell>
        <mxCell id="FY6FVotYPZoSdEqQePK5-69" value="" style="endArrow=classic;startArrow=classic;html=1;rounded=0;labelBackgroundColor=none;strokeColor=#23445D;fontColor=default;" edge="1" parent="1" source="FY6FVotYPZoSdEqQePK5-3" target="FY6FVotYPZoSdEqQePK5-21">
          <mxGeometry width="50" height="50" relative="1" as="geometry">
            <mxPoint x="390" y="585" as="sourcePoint" />
            <mxPoint x="624" y="425" as="targetPoint" />
          </mxGeometry>
        </mxCell>
      </root>
    </mxGraphModel>
  </diagram>
</mxfile>
